<svg width="60" height="59" viewBox="0 0 60 59" fill="none" xmlns="http://www.w3.org/2000/svg">
<path fill-rule="evenodd" clip-rule="evenodd" d="M18 0C8.05888 0 0 8.05888 0 18V29.5C0 45.7924 13.2076 59 29.5 59H42.3C52.0754 59 60 51.0754 60 41.3C60 18.4906 41.5094 0 18.7 0H18ZM44.7639 40.9148C44.7639 36.0037 38.1531 34.7307 30.3195 34.7307C22.5292 34.7307 15.875 35.9585 15.875 40.8715C15.875 45.7826 22.4876 47.0556 30.3195 47.0556C38.1098 47.0556 44.7639 45.8278 44.7639 40.9148ZM39.8781 20.4977C39.8781 15.1948 35.6262 10.9445 30.3195 10.9445C25.0146 10.9445 20.7609 15.1948 20.7609 20.4977C20.7609 25.8007 25.0146 30.0528 30.3195 30.0528C35.6262 30.0528 39.8781 25.8007 39.8781 20.4977Z" fill="#FAFAF8"/>
</svg>
