<svg width="39" height="33" viewBox="0 0 39 33" fill="none" xmlns="http://www.w3.org/2000/svg">
<path d="M1.60808 6.55613e-05C0.723634 6.55613e-05 0 0.723699 0 1.60814C0 2.49258 0.723634 3.21622 1.60808 3.21622H5.1764L9.39759 20.101C9.75459 21.5322 11.0378 22.5131 12.5124 22.5131H30.9555C32.4059 22.5131 33.6377 21.5515 34.0205 20.1509L38.1918 4.82429H11.2565L12.0606 8.04044H34.0205L30.9555 19.297H12.5124L8.29124 2.41218C8.11732 1.7196 7.71598 1.10543 7.1515 0.668075C6.58702 0.23072 5.89207 -0.00451183 5.178 6.55613e-05H1.60808ZM28.9454 22.5131C26.3001 22.5131 24.1211 24.6921 24.1211 27.3373C24.1211 29.9826 26.3001 32.1616 28.9454 32.1616C31.5906 32.1616 33.7696 29.9826 33.7696 27.3373C33.7696 24.6921 31.5906 22.5131 28.9454 22.5131ZM14.4727 22.5131C11.8274 22.5131 9.64845 24.6921 9.64845 27.3373C9.64845 29.9826 11.8274 32.1616 14.4727 32.1616C17.118 32.1616 19.2969 29.9826 19.2969 27.3373C19.2969 24.6921 17.118 22.5131 14.4727 22.5131ZM14.4727 25.7293C15.378 25.7293 16.0808 26.4336 16.0808 27.3373C16.0808 28.2427 15.3764 28.9454 14.4727 28.9454C13.5673 28.9454 12.8646 28.2411 12.8646 27.3373C12.8646 26.432 13.5689 25.7293 14.4727 25.7293ZM28.9454 25.7293C29.8507 25.7293 30.5534 26.4336 30.5534 27.3373C30.5534 28.2427 29.8491 28.9454 28.9454 28.9454C28.04 28.9454 27.3373 28.2411 27.3373 27.3373C27.3373 26.432 28.0416 25.7293 28.9454 25.7293Z" fill="#FAFAF8"/>
</svg>
