<svg width="30" height="35" viewBox="0 0 30 35" fill="none" xmlns="http://www.w3.org/2000/svg">
<path d="M28.4425 23.9321C27.81 22.012 27.4869 20.0036 27.485 17.9821V12.9871C27.531 9.82204 26.4015 6.75242 24.315 4.37208C22.2356 1.98798 19.3496 0.455058 16.21 0.0670763C14.475 -0.112924 12.71 0.0670764 11.035 0.634576C9.36 1.17208 7.835 2.06958 6.55 3.26708C5.25859 4.43369 4.22928 5.86092 3.53 7.45458C2.82724 9.04762 2.46044 10.7684 2.4525 12.5096V18.0096C2.44883 20.0228 2.12565 22.0227 1.495 23.9346L0 28.3571L1.1975 30.0021H9.96C9.96 31.3171 10.4975 32.6021 11.425 33.5321C12.35 34.4571 13.6375 34.9971 14.955 34.9971C16.27 34.9971 17.555 34.4596 18.4825 33.5321C19.41 32.6046 19.95 31.3171 19.95 30.0021H28.7125L29.9075 28.3571L28.4425 23.9321ZM16.7175 31.7996C16.4875 32.0342 16.2134 32.221 15.9109 32.3493C15.6084 32.4776 15.2835 32.5448 14.955 32.5471C14.6258 32.5448 14.3004 32.4773 13.9975 32.3486C13.6945 32.2199 13.4201 32.0324 13.19 31.7971C12.9549 31.5673 12.7676 31.2932 12.6389 30.9907C12.5102 30.6883 12.4426 30.3633 12.44 30.0346H17.4375C17.4479 30.3626 17.3894 30.6891 17.2659 30.9931C17.1423 31.2972 16.9563 31.5719 16.72 31.7996H16.7175ZM2.93 27.5246L3.8575 24.7396C4.58078 22.5699 4.95461 20.2991 4.965 18.0121V12.5096C4.965 11.1021 5.265 9.72708 5.8325 8.46958C6.4 7.18458 7.2075 6.04708 8.255 5.11958C9.3025 4.16458 10.53 3.44458 11.845 3.02708C13.19 2.57708 14.595 2.42708 15.97 2.57708C18.49 2.90844 20.8005 4.15399 22.4625 6.07708C24.1249 8.00256 25.0187 10.4736 24.9725 13.0171V18.0421C24.9725 20.3146 25.3325 22.5871 26.08 24.7696L27.0075 27.5521H2.9325V27.5221L2.93 27.5246Z" fill="#FAFAF8"/>
</svg>
